<svg width="512" height="512" xmlns="http://www.w3.org/2000/svg">
  <defs>
    <linearGradient id="grad1" x1="0%" y1="0%" x2="100%" y2="100%">
      <stop offset="0%" style="stop-color:#667eea;stop-opacity:1" />
      <stop offset="100%" style="stop-color:#764ba2;stop-opacity:1" />
    </linearGradient>
    <linearGradient id="parrot-grad" x1="0%" y1="0%" x2="100%" y2="100%">
      <stop offset="0%" style="stop-color:#00f260;stop-opacity:1" />
      <stop offset="50%" style="stop-color:#0575e6;stop-opacity:1" />
      <stop offset="100%" style="stop-color:#00f260;stop-opacity:1" />
    </linearGradient>
    <linearGradient id="beak-grad" x1="0%" y1="0%" x2="100%" y2="100%">
      <stop offset="0%" style="stop-color:#f7971e;stop-opacity:1" />
      <stop offset="100%" style="stop-color:#ffd200;stop-opacity:1" />
    </linearGradient>
  </defs>

  <!-- Background -->
  <rect width="512" height="512" fill="url(#grad1)" rx="90"/>

  <!-- Parrot Body -->
  <ellipse cx="256" cy="280" rx="90" ry="120" fill="url(#parrot-grad)" opacity="0.9"/>
  
  <!-- Parrot Head -->
  <circle cx="256" cy="180" r="70" fill="url(#parrot-grad)" opacity="0.9"/>
  
  <!-- Eye -->
  <circle cx="270" cy="170" r="12" fill="white"/>
  <circle cx="273" cy="168" r="6" fill="#333"/>
  
  <!-- Beak -->
  <path d="M 290 180 Q 320 185 315 195 Q 310 200 290 190 Z" fill="url(#beak-grad)"/>
  
  <!-- Wing -->
  <ellipse cx="220" cy="300" rx="40" ry="70" fill="#0575e6" opacity="0.7" transform="rotate(-20 220 300)"/>
  
  <!-- Tail feathers -->
  <path d="M 256 380 Q 240 420 230 450" stroke="#00f260" stroke-width="12" fill="none" stroke-linecap="round"/>
  <path d="M 256 380 Q 256 425 256 460" stroke="#0575e6" stroke-width="12" fill="none" stroke-linecap="round"/>
  <path d="M 256 380 Q 272 420 282 450" stroke="#00f260" stroke-width="12" fill="none" stroke-linecap="round"/>

  <!-- Text: PAPAGEIL -->
  <text x="256" y="85" font-family="Arial, Helvetica, sans-serif"
        font-size="58" font-weight="900" fill="white"
        text-anchor="middle" letter-spacing="2">PapaGeil</text>
  
  <!-- Subtitle -->
  <text x="256" y="490" font-family="Arial, Helvetica, sans-serif"
        font-size="32" font-weight="600" fill="white"
        text-anchor="middle" opacity="0.9">DEUTSCH LERNEN</text>
</svg>
